<svg width="280" height="54" viewBox="0 0 280 54" fill="none" xmlns="http://www.w3.org/2000/svg">
	<path d="M23.616 0H0V11.4496H9.35999V52.3839H23.616V0Z" fill="#D56062"></path>
	<path
		d="M89.8385 0H75.7985L53.5505 52.3839H68.0945L72.0545 42.2064L76.2305 31.2806L82.7105 14.5178L89.1905 31.2806L93.3665 42.2064L97.3265 52.3839H112.159L89.8385 0Z"
		fill="#D56062"
	></path>
	<path
		d="M125.837 47.0706C130.013 51.3362 135.845 53.4315 143.333 53.4315C150.821 53.4315 156.581 51.3362 160.757 47.0706C164.933 42.8799 167.021 36.8184 167.021 29.0356V0H152.981V28.5866C152.981 36.968 149.813 41.1587 143.477 41.1587C137.069 41.1587 133.901 36.968 133.901 28.5866V0H119.645V29.0356C119.645 36.8184 121.661 42.8799 125.837 47.0706V47.0706Z"
		fill="#D56062"
	></path>
	<path d="M191.492 11.749V52.3839H205.748V11.749H221.156V0H176.012V11.749H191.492Z" fill="#D56062"></path>
	<path
		d="M279.419 0H265.163V19.6814H245.723V0H231.467V52.3839H245.723V31.9542H265.163V52.3839H279.419V0Z"
		fill="#D56062"
	></path>
</svg>
